<mxfile host="app.diagrams.net" modified="2023-09-10T00:35:30.075Z" agent="Mozilla/5.0 (Windows NT 10.0; Win64; x64) AppleWebKit/537.36 (KHTML, like Gecko) Chrome/116.0.0.0 Safari/537.36" etag="PesJDvgG8dQ6Saew40fF" version="21.7.4" type="device">
  <diagram name="Página-1" id="GQ-TH5ZLVQVtmWnnQ0bU">
    <mxGraphModel dx="1050" dy="542" grid="1" gridSize="10" guides="1" tooltips="1" connect="1" arrows="1" fold="1" page="1" pageScale="1" pageWidth="827" pageHeight="1169" math="0" shadow="0">
      <root>
        <mxCell id="0" />
        <mxCell id="1" parent="0" />
        <mxCell id="-6deuw9YoRFzWGB384JP-20" value="" style="strokeWidth=2;html=1;shape=mxgraph.flowchart.start_2;whiteSpace=wrap;" vertex="1" parent="1">
          <mxGeometry x="70" y="87.5" width="30" height="30" as="geometry" />
        </mxCell>
        <mxCell id="-6deuw9YoRFzWGB384JP-21" value="" style="ellipse;shape=doubleEllipse;whiteSpace=wrap;html=1;aspect=fixed;perimeterSpacing=0;strokeWidth=2;" vertex="1" parent="1">
          <mxGeometry x="558.13" y="760" width="40" height="40" as="geometry" />
        </mxCell>
        <mxCell id="-6deuw9YoRFzWGB384JP-22" value="Iniciar sesión como Paciente" style="rounded=1;whiteSpace=wrap;html=1;" vertex="1" parent="1">
          <mxGeometry x="130" y="72.5" width="120" height="60" as="geometry" />
        </mxCell>
        <mxCell id="-6deuw9YoRFzWGB384JP-23" value="" style="endArrow=classic;html=1;rounded=0;exitX=1;exitY=0.5;exitDx=0;exitDy=0;exitPerimeter=0;entryX=0;entryY=0.5;entryDx=0;entryDy=0;" edge="1" parent="1" source="-6deuw9YoRFzWGB384JP-20" target="-6deuw9YoRFzWGB384JP-22">
          <mxGeometry width="50" height="50" relative="1" as="geometry">
            <mxPoint x="220" y="392.5" as="sourcePoint" />
            <mxPoint x="270" y="342.5" as="targetPoint" />
          </mxGeometry>
        </mxCell>
        <mxCell id="-6deuw9YoRFzWGB384JP-24" value="" style="endArrow=classic;html=1;rounded=0;exitX=1;exitY=0.5;exitDx=0;exitDy=0;entryX=0;entryY=0.5;entryDx=0;entryDy=0;" edge="1" parent="1" source="-6deuw9YoRFzWGB384JP-22" target="-6deuw9YoRFzWGB384JP-35">
          <mxGeometry width="50" height="50" relative="1" as="geometry">
            <mxPoint x="120" y="127.5" as="sourcePoint" />
            <mxPoint x="170" y="127.5" as="targetPoint" />
          </mxGeometry>
        </mxCell>
        <mxCell id="-6deuw9YoRFzWGB384JP-25" value="¿Existe citas médicas registrada?" style="rhombus;whiteSpace=wrap;html=1;" vertex="1" parent="1">
          <mxGeometry x="431.88" y="170" width="132.5" height="125" as="geometry" />
        </mxCell>
        <mxCell id="-6deuw9YoRFzWGB384JP-46" style="edgeStyle=orthogonalEdgeStyle;rounded=0;orthogonalLoop=1;jettySize=auto;html=1;entryX=1;entryY=0.5;entryDx=0;entryDy=0;" edge="1" parent="1" source="-6deuw9YoRFzWGB384JP-26" target="-6deuw9YoRFzWGB384JP-30">
          <mxGeometry relative="1" as="geometry">
            <mxPoint x="700" y="380" as="targetPoint" />
            <Array as="points">
              <mxPoint x="700" y="380" />
            </Array>
          </mxGeometry>
        </mxCell>
        <mxCell id="-6deuw9YoRFzWGB384JP-26" value="Ingresar cita médica" style="rounded=1;whiteSpace=wrap;html=1;" vertex="1" parent="1">
          <mxGeometry x="640" y="202.5" width="120" height="60" as="geometry" />
        </mxCell>
        <mxCell id="-6deuw9YoRFzWGB384JP-27" value="No" style="endArrow=classic;html=1;rounded=0;exitX=1;exitY=0.5;exitDx=0;exitDy=0;entryX=0;entryY=0.5;entryDx=0;entryDy=0;" edge="1" parent="1" source="-6deuw9YoRFzWGB384JP-25" target="-6deuw9YoRFzWGB384JP-26">
          <mxGeometry width="50" height="50" relative="1" as="geometry">
            <mxPoint x="390" y="157.5" as="sourcePoint" />
            <mxPoint x="390" y="187.5" as="targetPoint" />
            <Array as="points" />
          </mxGeometry>
        </mxCell>
        <mxCell id="-6deuw9YoRFzWGB384JP-28" value="" style="endArrow=classic;html=1;rounded=0;exitX=0.5;exitY=1;exitDx=0;exitDy=0;entryX=0.5;entryY=0;entryDx=0;entryDy=0;" edge="1" parent="1" source="-6deuw9YoRFzWGB384JP-25" target="-6deuw9YoRFzWGB384JP-30">
          <mxGeometry width="50" height="50" relative="1" as="geometry">
            <mxPoint x="390" y="157.5" as="sourcePoint" />
            <mxPoint x="380" y="287.5" as="targetPoint" />
            <Array as="points" />
          </mxGeometry>
        </mxCell>
        <mxCell id="-6deuw9YoRFzWGB384JP-29" value="Si" style="edgeLabel;html=1;align=center;verticalAlign=middle;resizable=0;points=[];" vertex="1" connectable="0" parent="-6deuw9YoRFzWGB384JP-28">
          <mxGeometry x="-0.4267" y="1" relative="1" as="geometry">
            <mxPoint x="-1" y="12" as="offset" />
          </mxGeometry>
        </mxCell>
        <mxCell id="-6deuw9YoRFzWGB384JP-30" value="Seleccionar cita médica" style="rounded=1;whiteSpace=wrap;html=1;" vertex="1" parent="1">
          <mxGeometry x="438.13" y="350" width="120" height="60" as="geometry" />
        </mxCell>
        <mxCell id="-6deuw9YoRFzWGB384JP-31" value="Eliminar cita médica" style="rounded=1;whiteSpace=wrap;html=1;" vertex="1" parent="1">
          <mxGeometry x="438.13" y="470" width="120" height="60" as="geometry" />
        </mxCell>
        <mxCell id="-6deuw9YoRFzWGB384JP-32" value="" style="endArrow=classic;html=1;rounded=0;exitX=0.5;exitY=1;exitDx=0;exitDy=0;entryX=0.5;entryY=0;entryDx=0;entryDy=0;" edge="1" parent="1" source="-6deuw9YoRFzWGB384JP-30" target="-6deuw9YoRFzWGB384JP-31">
          <mxGeometry width="50" height="50" relative="1" as="geometry">
            <mxPoint x="390" y="157.5" as="sourcePoint" />
            <mxPoint x="390" y="187.5" as="targetPoint" />
            <Array as="points" />
          </mxGeometry>
        </mxCell>
        <mxCell id="-6deuw9YoRFzWGB384JP-33" value="Registrar modificación en el sistema" style="rounded=1;whiteSpace=wrap;html=1;" vertex="1" parent="1">
          <mxGeometry x="292.5" y="750" width="132.5" height="60" as="geometry" />
        </mxCell>
        <mxCell id="-6deuw9YoRFzWGB384JP-34" value="Derivar al usuario a ejecutar el proceso de registro de cita médica" style="shape=note;whiteSpace=wrap;html=1;backgroundOutline=1;darkOpacity=0.05;" vertex="1" parent="1">
          <mxGeometry x="608.75" y="37.5" width="182.5" height="130" as="geometry" />
        </mxCell>
        <mxCell id="-6deuw9YoRFzWGB384JP-45" style="edgeStyle=orthogonalEdgeStyle;rounded=0;orthogonalLoop=1;jettySize=auto;html=1;entryX=0.5;entryY=0;entryDx=0;entryDy=0;" edge="1" parent="1" source="-6deuw9YoRFzWGB384JP-35" target="-6deuw9YoRFzWGB384JP-25">
          <mxGeometry relative="1" as="geometry" />
        </mxCell>
        <mxCell id="-6deuw9YoRFzWGB384JP-35" value="Acceder a Registrar Cita Médica" style="rounded=1;whiteSpace=wrap;html=1;" vertex="1" parent="1">
          <mxGeometry x="292.5" y="72.5" width="130" height="60" as="geometry" />
        </mxCell>
        <mxCell id="-6deuw9YoRFzWGB384JP-37" value="" style="endArrow=none;dashed=1;html=1;dashPattern=1 3;strokeWidth=2;rounded=0;exitX=0.5;exitY=0;exitDx=0;exitDy=0;" edge="1" parent="1" source="-6deuw9YoRFzWGB384JP-26" target="-6deuw9YoRFzWGB384JP-34">
          <mxGeometry width="50" height="50" relative="1" as="geometry">
            <mxPoint x="460" y="167.5" as="sourcePoint" />
            <mxPoint x="510" y="117.5" as="targetPoint" />
          </mxGeometry>
        </mxCell>
        <mxCell id="-6deuw9YoRFzWGB384JP-39" value="¿Desea eliminar esta cita médica?" style="rhombus;whiteSpace=wrap;html=1;" vertex="1" parent="1">
          <mxGeometry x="283.13" y="570" width="148.75" height="135" as="geometry" />
        </mxCell>
        <mxCell id="-6deuw9YoRFzWGB384JP-40" value="" style="endArrow=classic;html=1;rounded=0;exitX=0.5;exitY=1;exitDx=0;exitDy=0;entryX=0.5;entryY=0;entryDx=0;entryDy=0;" edge="1" parent="1" source="-6deuw9YoRFzWGB384JP-39" target="-6deuw9YoRFzWGB384JP-33">
          <mxGeometry width="50" height="50" relative="1" as="geometry">
            <mxPoint x="370" y="750" as="sourcePoint" />
            <mxPoint x="358" y="760" as="targetPoint" />
            <Array as="points" />
          </mxGeometry>
        </mxCell>
        <mxCell id="-6deuw9YoRFzWGB384JP-41" value="Si" style="edgeLabel;html=1;align=center;verticalAlign=middle;resizable=0;points=[];" vertex="1" connectable="0" parent="-6deuw9YoRFzWGB384JP-40">
          <mxGeometry x="-0.4267" y="1" relative="1" as="geometry">
            <mxPoint x="-1" y="12" as="offset" />
          </mxGeometry>
        </mxCell>
        <mxCell id="-6deuw9YoRFzWGB384JP-42" value="No" style="endArrow=classic;html=1;rounded=0;exitX=0.5;exitY=0;exitDx=0;exitDy=0;entryX=0.5;entryY=1;entryDx=0;entryDy=0;" edge="1" parent="1" source="-6deuw9YoRFzWGB384JP-39" target="-6deuw9YoRFzWGB384JP-35">
          <mxGeometry width="50" height="50" relative="1" as="geometry">
            <mxPoint x="440" y="650.0000000000001" as="sourcePoint" />
            <mxPoint x="520" y="640" as="targetPoint" />
            <Array as="points" />
          </mxGeometry>
        </mxCell>
        <mxCell id="-6deuw9YoRFzWGB384JP-43" value="" style="endArrow=classic;html=1;rounded=0;exitX=0.5;exitY=1;exitDx=0;exitDy=0;entryX=1;entryY=0.5;entryDx=0;entryDy=0;" edge="1" parent="1" source="-6deuw9YoRFzWGB384JP-31" target="-6deuw9YoRFzWGB384JP-39">
          <mxGeometry width="50" height="50" relative="1" as="geometry">
            <mxPoint x="368" y="440" as="sourcePoint" />
            <mxPoint x="450" y="530" as="targetPoint" />
            <Array as="points">
              <mxPoint x="498" y="638" />
            </Array>
          </mxGeometry>
        </mxCell>
        <mxCell id="-6deuw9YoRFzWGB384JP-44" value="" style="endArrow=classic;html=1;rounded=0;exitX=1;exitY=0.5;exitDx=0;exitDy=0;entryX=0;entryY=0.5;entryDx=0;entryDy=0;" edge="1" parent="1" source="-6deuw9YoRFzWGB384JP-33" target="-6deuw9YoRFzWGB384JP-21">
          <mxGeometry width="50" height="50" relative="1" as="geometry">
            <mxPoint x="490" y="779.41" as="sourcePoint" />
            <mxPoint x="533" y="779.41" as="targetPoint" />
          </mxGeometry>
        </mxCell>
      </root>
    </mxGraphModel>
  </diagram>
</mxfile>
